<svg width="64" height="64" viewBox="0 0 64 64" fill="none" xmlns="http://www.w3.org/2000/svg">
<path d="M40.842 37.9081C41.6849 28.6865 43.1152 23.1026 46.2284 14.4241C46.3123 14.1902 46.6553 14.2383 46.6706 14.4862C47.3167 24.9688 47.6904 31.3883 51.0461 40.4012C51.1785 40.7568 50.8485 41.1139 50.485 41.0049C47.2141 40.024 45.503 39.3638 41.2 38.3998C40.9752 38.3494 40.821 38.1375 40.842 37.9081Z" fill="#006FEE"/>
<path d="M12.9478 30.6851C12.1232 32.0123 11.6058 36.6848 14.3899 39.0575C14.5482 39.1924 14.7795 39.185 14.9462 39.0607C21.0776 34.4879 31.1433 37.4443 30.1544 43.2642C30.1032 43.5652 30.3235 43.8594 30.6289 43.8624C39.3821 43.9483 46.1685 45.9127 49.3634 51.954C49.5298 52.2688 49.98 52.3094 50.193 52.0241C52.3696 49.107 55.4959 46.0646 51.5539 43.4011C47.3153 40.5372 41.5694 39.9469 34.7138 37.7878C27.8582 35.6286 17.7592 29.8833 16.3845 29.5396C15.0098 29.1959 13.7986 29.3157 12.9478 30.6851Z" fill="#006FEE"/>
<path d="M50.9889 58.0581L12.3435 57.4964C12.1551 57.4937 11.9859 57.3721 11.9214 57.1951C7.95423 46.295 13.005 39.4842 19.9358 38.017C26.9293 36.5364 33.6652 43.5158 25.8752 44.7759C18.5863 45.955 16.6284 53.3525 24.3837 55.8945C24.6393 55.9783 24.7631 55.6406 24.5303 55.5059C9.09244 46.5743 40.1911 37.9512 49.0547 53.0026C49.1742 53.2056 49.4275 53.2947 49.6503 53.2181C53.4091 51.9257 55.7171 55.792 51.1946 58.0119C51.1315 58.0429 51.0592 58.0592 50.9889 58.0581Z" fill="#006FEE"/>
<path d="M47.8403 7.57436C43.1624 18.5299 40.9606 26.1017 39.8324 37.5307C39.8052 37.8056 39.5431 37.9981 39.2738 37.9364C34.6706 36.8814 30.779 35.773 26.8293 32.8605C26.7319 32.7887 26.6664 32.6828 26.6536 32.5626C25.9759 26.2196 37.6437 14.7395 47.497 7.29799C47.6839 7.15681 47.9323 7.35892 47.8403 7.57436Z" fill="#006FEE"/>
</svg>
